# xmcd
#
# Track frame offsets: 
#        150
#        16835
#        36885
#        54052
#        69025
#        85635
#        99567
#        113920
#        135790
#        154540
#        171205
#        183662
#        195052
#        215832
#        230270
#        240975
#        261559
#        275227
#        286857
#        297000
#
# Disc length: 4262 seconds
#
# Revision: 0
# Processed by: cddbd v1.5.2PL0 Copyright (c) Steve Scherf et al.
# Submitted via: ExactAudioCopy v0.99pb3
#
DISCID=0610a414
DTITLE=T-Bone Fischer - Endless Hiway Blues
DYEAR=1997
DGENRE=Blues
TTITLE0=Before you accuse me
TTITLE1=San Francisco bay blues
TTITLE2=Hesitation blues
TTITLE3=Keys to  the hiway
TTITLE4=In the evenin'
TTITLE5=Morning tide
TTITLE6=Buzzard luck
TTITLE7=House of the rising sun
TTITLE8=Midnight special
TTITLE9=Pawn shop blues
TTITLE10=You bring out the boogie in me
TTITLE11=Big bam boo
TTITLE12=Muddy Water
TTITLE13=Pirates
TTITLE14=Carribean way
TTITLE15=St. James Infirmary blues
TTITLE16=Ice cream man
TTITLE17=Snow bound blues
TTITLE18=I want some of your pie
TTITLE19=Endless hiway
EXTD=
EXTT0=
EXTT1=
EXTT2=
EXTT3=
EXTT4=
EXTT5=
EXTT6=
EXTT7=
EXTT8=
EXTT9=
EXTT10=
EXTT11=
EXTT12=
EXTT13=
EXTT14=
EXTT15=
EXTT16=
EXTT17=
EXTT18=
EXTT19=
PLAYORDER=
